<?xml version="1.0" encoding="utf-8"?>
<!-- Generator: Adobe Illustrator 17.1.0, SVG Export Plug-In . SVG Version: 6.00 Build 0)  -->
<!DOCTYPE svg PUBLIC "-//W3C//DTD SVG 1.1//EN" "http://www.w3.org/Graphics/SVG/1.1/DTD/svg11.dtd">
<svg version="1.1" id="Layer_1" xmlns="http://www.w3.org/2000/svg" xmlns:xlink="http://www.w3.org/1999/xlink" x="0px" y="0px"
	 viewBox="0 0 16 16" enable-background="new 0 0 16 16" xml:space="preserve">
<g id="tool_-_headphone">
	<g>
		<path fill-rule="evenodd" clip-rule="evenodd" fill="#3D4142" d="M12.7,1.5C11.4,0.6,9.8,0,8,0C3.6,0,0,3.6,0,8c0,0.3,0,0.7,0.1,1
			h0C0,9.2,0,9.3,0,9.5v4c0,0.2,0,0.4,0.1,0.6L1,13.2V9.5C1,9.2,1.2,9,1.5,9h2C3.8,9,4,9.2,4,9.5v0.7l1-1C4.9,8.6,4.2,8,3.5,8h-2
			C1.3,8,1.2,8,1,8.1C1,8.1,1,8,1,8c0-3.9,3.1-7,7-7c1.5,0,2.9,0.5,4,1.3L12.7,1.5z M4.8,13l-2,2h0.7C4.3,15,5,14.3,5,13.5v-0.7
			L4.8,13L4.8,13z M15.9,9C16,8.7,16,8.3,16,8c0-1.8-0.6-3.4-1.5-4.7L13.7,4C14.5,5.1,15,6.5,15,8c0,0,0,0.1,0,0.1
			C14.8,8,14.7,8,14.5,8h-2C11.7,8,11,8.7,11,9.5v4c0,0.8,0.7,1.5,1.5,1.5h2c0.8,0,1.5-0.7,1.5-1.5v-4C16,9.3,16,9.2,15.9,9L15.9,9z
			 M15,13.5c0,0.3-0.2,0.5-0.5,0.5h-2c-0.3,0-0.5-0.2-0.5-0.5v-4C12,9.2,12.2,9,12.5,9h2C14.8,9,15,9.2,15,9.5V13.5z"/>
	</g>
</g>
<polygon fill-rule="evenodd" clip-rule="evenodd" fill="#3D4142" points="16.1,0.6 4.6,12.1 0.6,16.1 -0.1,15.4 3.9,11.4 11.4,3.9 
	15.4,-0.1 "/>
<polygon fill-rule="evenodd" clip-rule="evenodd" fill="#3D4142" points="11.4,3.9 3.9,11.4 3.9,11.4 "/>
</svg>
